<mxfile host="app.diagrams.net" modified="2024-05-06T06:15:38.042Z" agent="Mozilla/5.0 (Macintosh; Intel Mac OS X 10_15_7) AppleWebKit/605.1.15 (KHTML, like Gecko) Version/16.2 Safari/605.1.15" etag="ynOByrEMeWeskpQkb5yC" version="24.3.1" type="github">
  <diagram id="C5RBs43oDa-KdzZeNtuy" name="Page-1">
    <mxGraphModel dx="954" dy="647" grid="1" gridSize="10" guides="1" tooltips="1" connect="1" arrows="1" fold="1" page="1" pageScale="1" pageWidth="827" pageHeight="1169" math="0" shadow="0">
      <root>
        <mxCell id="WIyWlLk6GJQsqaUBKTNV-0" />
        <mxCell id="WIyWlLk6GJQsqaUBKTNV-1" parent="WIyWlLk6GJQsqaUBKTNV-0" />
        <mxCell id="DRPLHVgeeCbUi97a92Iw-1" value="" style="edgeStyle=orthogonalEdgeStyle;rounded=0;orthogonalLoop=1;jettySize=auto;html=1;" edge="1" parent="WIyWlLk6GJQsqaUBKTNV-1" source="WIyWlLk6GJQsqaUBKTNV-3" target="DRPLHVgeeCbUi97a92Iw-0">
          <mxGeometry relative="1" as="geometry" />
        </mxCell>
        <mxCell id="DRPLHVgeeCbUi97a92Iw-3" value="" style="edgeStyle=orthogonalEdgeStyle;rounded=0;orthogonalLoop=1;jettySize=auto;html=1;" edge="1" parent="WIyWlLk6GJQsqaUBKTNV-1" source="WIyWlLk6GJQsqaUBKTNV-3" target="DRPLHVgeeCbUi97a92Iw-2">
          <mxGeometry relative="1" as="geometry" />
        </mxCell>
        <mxCell id="WIyWlLk6GJQsqaUBKTNV-3" value="Best Model" style="rounded=1;whiteSpace=wrap;html=1;fontSize=12;glass=0;strokeWidth=1;shadow=0;" parent="WIyWlLk6GJQsqaUBKTNV-1" vertex="1">
          <mxGeometry x="320" y="120" width="120" height="40" as="geometry" />
        </mxCell>
        <mxCell id="DRPLHVgeeCbUi97a92Iw-5" value="" style="edgeStyle=orthogonalEdgeStyle;rounded=0;orthogonalLoop=1;jettySize=auto;html=1;" edge="1" parent="WIyWlLk6GJQsqaUBKTNV-1" source="DRPLHVgeeCbUi97a92Iw-0" target="DRPLHVgeeCbUi97a92Iw-4">
          <mxGeometry relative="1" as="geometry" />
        </mxCell>
        <mxCell id="DRPLHVgeeCbUi97a92Iw-0" value="Internal Analysis&amp;nbsp;&lt;div&gt;of Group 1&lt;/div&gt;" style="rounded=1;whiteSpace=wrap;html=1;fontSize=12;glass=0;strokeWidth=1;shadow=0;" vertex="1" parent="WIyWlLk6GJQsqaUBKTNV-1">
          <mxGeometry x="197" y="200" width="120" height="40" as="geometry" />
        </mxCell>
        <mxCell id="DRPLHVgeeCbUi97a92Iw-7" value="" style="edgeStyle=orthogonalEdgeStyle;rounded=0;orthogonalLoop=1;jettySize=auto;html=1;" edge="1" parent="WIyWlLk6GJQsqaUBKTNV-1">
          <mxGeometry relative="1" as="geometry">
            <mxPoint x="443" y="210" as="sourcePoint" />
            <mxPoint x="383" y="250" as="targetPoint" />
            <Array as="points">
              <mxPoint x="443" y="220" />
              <mxPoint x="383" y="220" />
            </Array>
          </mxGeometry>
        </mxCell>
        <mxCell id="DRPLHVgeeCbUi97a92Iw-2" value="Internal Analysis&lt;div&gt;of Group 2&lt;/div&gt;" style="rounded=1;whiteSpace=wrap;html=1;fontSize=12;glass=0;strokeWidth=1;shadow=0;" vertex="1" parent="WIyWlLk6GJQsqaUBKTNV-1">
          <mxGeometry x="443" y="200" width="120" height="40" as="geometry" />
        </mxCell>
        <mxCell id="DRPLHVgeeCbUi97a92Iw-16" value="" style="edgeStyle=orthogonalEdgeStyle;rounded=0;orthogonalLoop=1;jettySize=auto;html=1;" edge="1" parent="WIyWlLk6GJQsqaUBKTNV-1">
          <mxGeometry relative="1" as="geometry">
            <mxPoint x="382" y="300" as="sourcePoint" />
            <mxPoint x="381" y="338" as="targetPoint" />
          </mxGeometry>
        </mxCell>
        <mxCell id="DRPLHVgeeCbUi97a92Iw-4" value="Two Groups Comparison" style="whiteSpace=wrap;html=1;rounded=1;glass=0;strokeWidth=1;shadow=0;" vertex="1" parent="WIyWlLk6GJQsqaUBKTNV-1">
          <mxGeometry x="323" y="250" width="120" height="50" as="geometry" />
        </mxCell>
        <mxCell id="DRPLHVgeeCbUi97a92Iw-14" value="&lt;div&gt;Finish&lt;/div&gt;" style="rounded=1;whiteSpace=wrap;html=1;fontSize=12;glass=0;strokeWidth=1;shadow=0;" vertex="1" parent="WIyWlLk6GJQsqaUBKTNV-1">
          <mxGeometry x="322" y="338" width="120" height="40" as="geometry" />
        </mxCell>
      </root>
    </mxGraphModel>
  </diagram>
</mxfile>
